# xmcd
#
# Track frame offsets: 
#        150
#        23295
#        39460
#        55422
#        75950
#        96182
#        114815
#        135187
#        149295
#        166580
#        179600
#        199357
#        219125
#        234497
#        248160
#
# Disc length: 3543 seconds
#
# Revision: 0
# Processed by: cddbd v1.5.1PL0 Copyright (c) Steve Scherf et al.
# Submitted via: ExactAudioCopy v0.95a5
#
DISCID=b30dd50f
DTITLE=Various Artist - Blues: The language of New Orleans
DYEAR=1998
DGENRE=Blues
TTITLE0=John Mooney - Sacred Ground
TTITLE1=John Carey - People You love
TTITLE2=Luther Kent - China Blue
TTITLE3=Spencer Bohren - Wade in the Water
TTITLE4=Oscar "Harpo" Davis - I want to Know
TTITLE5=Amy and The Hank Sinatras - Teardrops From My Eyes
TTITLE6=Joe Krown - Midnight Boogie
TTITLE7=Paula and The Pontiacs - 30 By 90
TTITLE8=Chris Thomas King - I'll Play the Blues for You
TTITLE9=Smokey Greenwell - Blow-Out
TTITLE10=Merritt Doggins and The Bloodhounds - It's Too Late, Brother
TTITLE11=Jeremy Lyons - Someday Baby (Worried Life Blues)
TTITLE12=B. B. Major - My Love Is So Strong (For You)
TTITLE13=Stavin' Chain - Big Ol' Woman
TTITLE14=Nelson Lunding and Blues in the Pocket - Whiskey and A Beer To Go
EXTD=
EXTT0=
EXTT1=
EXTT2=
EXTT3=
EXTT4=
EXTT5=
EXTT6=
EXTT7=
EXTT8=
EXTT9=
EXTT10=
EXTT11=
EXTT12=
EXTT13=
EXTT14=
PLAYORDER=
